<svg version="1.2" xmlns="http://www.w3.org/2000/svg" viewBox="0 0 1200 600" width="1200" height="600"><style>.a{fill:#fe2d02}.b{fill:#fff}</style><path class="a" d="m296.7 444.2c-18.5-1.1-35-7.5-43.6-17-3.9-4.3-7.2-10.7-8.9-17.3-1.3-5-1.5-6.5-1.7-20.3-0.2-15-0.2-15.1-1.6-16.3-1.3-1.3-1.3-1.5-1.3-12.3 0-9.2 0.1-11.1 0.9-11.8 0.4-0.5 1.1-0.9 1.4-0.9 0.2 0 0.5-10.8 0.5-27.1v-27.2h24.1 24.1v64c0 71.2-0.2 66.4 3.8 68.9 1.8 1.1 2.8 1.2 10.7 1.4l8.6 0.2v-67.2-67.3h25.5 25.5v29.9 29.9h-14.8-14.8v6.6 6.6h14.8 14.9l-0.2 18.2c-0.3 17.6-0.4 18.5-1.7 23.7-3.6 13.6-10.6 22.1-23.2 28.4-11 5.6-25.9 7.9-43 6.9zm-10.5-83.1v-61.2l-4.8 0.3c-4.4 0.1-5.1 0.3-6.4 1.5-3.1 2.8-3 0.3-3 59.4 0 37.3 0.1 55.1 0.6 56.2 0.7 1.8 2.6 3.9 4 4.5 0.6 0.3 3.1 0.5 5.4 0.5l4.2 0.1zm-18.6-0.5v-46.9h-3c-4 0-6.6 1.1-8 3.4-1.1 1.7-1.1 2.6-1.1 44v42.1l2.2 2.1c2 2.1 2.2 2.2 6 2.2h3.9zm-17.7 12.7c0.5-0.5 0.7-4 0.7-12.6 0-11.2-0.1-11.9-1.1-12.5-1.5-0.8-2-0.7-3.3 0.6-1 1-1.1 1.8-1.1 12.1 0 9.5 0.1 11.2 0.9 12.1 1 1.2 2.9 1.3 3.9 0.3z"/><path class="a" d="m730.5 444.2c-25.1-1.4-43.1-12.2-49.4-29.5-3.1-8.2-3.3-11-3.7-30l-0.2-17.7h22.2 22.3v-6.6-6.6h-22.2-22.2v-29.9-29.9h25.5 25.5v67.3 67.2l8.7-0.2c9.5-0.2 11.3-0.7 13.2-3.9 1.1-1.7 1.1-3.3 1.1-66v-64.4h24.2 24.1v27.2c0 23.4 0.1 27.1 0.8 27.1 1.6 0 1.9 2.2 1.9 13.1 0 10.9 0 11-1.3 12l-1.3 1-0.2 15.7c-0.4 17.6-0.8 20.4-4.9 28.8-8.7 17.6-32.9 27.2-64.1 25.3zm35.6-22.8c4.1-2.1 3.9 1.7 3.9-60.1 0-60.9 0.1-58-3.4-60.2-1.5-0.8-2.8-1-6.1-1h-4.2v61.1 61.2h4c2.6 0 4.5-0.4 5.8-1zm17.4-14.9c3.6-2.2 3.5-1.2 3.4-46.7-0.2-38.3-0.3-41-1.2-42.4-1.6-2.5-4-3.6-7.9-3.6h-3.4v46.9 46.8h3.7c2.6 0 4.2-0.2 5.4-1zm12.5-33.3c1.3-1.3 1.3-23-0.1-24.4-1.1-1.3-2.2-1.3-3.6-0.1-0.8 0.8-0.9 1.9-0.9 12.3 0 12.1 0.2 13.1 2.7 13.1 0.5 0 1.4-0.4 1.9-0.9z"/><path class="a" d="m136.5 444c-19-1.4-32.2-7.2-43.7-19.1-7.2-7.4-11.4-14.2-14.9-24-6.2-17.6-6.5-42.5-0.9-62.2 1.8-6.2 6.5-15.9 10.3-21.5 1.6-2.3 5-6.3 7.6-8.9 10.7-10.6 24-16 41.3-16.8 33.4-1.6 56.3 13.9 64.5 43.8 1.1 4.1 2.9 14.7 2.5 15.1-0.3 0.2-35.7 2.2-39.9 2.3h-2.7v-3.4c0-4.2-1.2-9.9-2.6-13.3-1.5-3.3-5.8-7.8-9.1-9.5-5.4-2.7-12.8-2.1-17.8 1.5-4.9 3.6-8.6 11.6-10.3 22.8-1.1 6.7-1.2 27.4-0.2 34.3 2.4 17.3 8.6 24.6 20.8 24.6 11.2 0 17.4-6.4 19.8-20.1l0.7-4h1.9c2.7 0 39.3 2.3 39.5 2.4 0.1 0.1-0.3 2.2-0.7 4.7-3.2 18.4-11.4 31.7-25 40.7-10 6.7-20.1 9.9-34 10.5-2.5 0.1-5.7 0.1-7.1 0.1z"/><path class="a" d="m416.8 405.1v-38.1h22.7 22.8v20 20h29.3 29.4v18.1 18.1h-52.1-52.1z"/><path class="a" d="m570.3 405.1v-38.1h21.4 21.4v38.1 38.1h-21.4-21.4z"/><path class="a" d="m853.3 368v-74l44.6 0.2c42.6 0.2 44.8 0.3 49.8 1.3 20.5 4.5 33.3 15.8 36.8 32.8 3.3 15.8-1.6 32.7-11.8 40.9-2.7 2.1-11.7 7.9-13.2 8.3-0.3 0.2 5.4 14.5 12.7 32 7.3 17.5 13.3 32 13.3 32.2 0 0.2-11.3 0.3-25.1 0.3l-25.1-0.2-10.7-27.9-10.7-28-7.5-0.2-7.5-0.1v28.3 28.2h-22.8-22.8zm77.1-16.4c5.3-2.7 7-5.2 7.3-10.8 0.3-5-0.5-7.7-2.8-10.4-3.7-4.2-7.7-5.1-24.1-5.1h-11.9v14.3 14.2l13.9-0.1 13.9-0.2z"/><path class="a" d="m1032.7 368.1v-74.1h55.9 56v17 17h-33.8-33.7v11 11h27.1 27.2v16.4 16.5h-27.2-27.1v12 12.1h33.7 33.8v17.5 17.6h-56-55.9z"/><path class="a" d="m416.8 324.2v-29.6h22.7 22.8v29.6 29.6h-22.8-22.7z"/><path class="a" d="m570.3 342v-11.8h-15.6-15.6v-17.8-17.8h52.6 52.7v17.8 17.8h-15.7-15.6v11.8 11.8h-21.4-21.4z"/><path class="a" d="m233.4 258.3c-4.7-1.1-5.2-1.8-11.6-17.2-5.3-12.7-5-11.7-2.5-9.4 3.6 3.3 8.8 5.3 13.5 5.2 2.2 0 2.1 0-2.5-2.2-7.7-3.8-11.8-9-15.4-19.5-5.3-15.7-4.1-30.3 3.5-42 3.9-6 7.9-14.4 10.3-21.6 3.2-9.9 6.6-17.9 7.2-17.3 0.9 0.9 1.5 15.1 1 20.1-0.8 6.7-0.6 7.7 0.7 3.9 1-3 1.1-5 1.5-23.3 0.4-21.4 0.5-23 3.5-29.5 1.6-3.4 9.6-13.1 19.1-23.2 3.9-4 8.1-9.1 9.6-11.2 4.6-7.1 5.8-7.9 12.7-8.8 3.4-0.4 2.8-1.4-0.9-1.4h-2.5l1.4-1.6c1.9-2.4 4.6-4 7.1-4.2 2-0.3 3 0.1 5.9 1.7 2 1.1 5.2 2.8 7.1 3.6 22.4 10.6 26.4 13.3 26.4 18 0 1.1-0.5 2.1-1.7 3-2.2 1.9-2.9 1.9-3.7-0.4-1.4-3.8-5.2-6.3-17.3-11.6-10-4.2-11.2-4.9-10.3-5.5 0.8-0.7 0.5-0.7-2.1-0.8h-2.9l1.2 1.4c2.1 2.1 16.8 10.2 22.5 12.2 2.9 1.1 5.7 2.3 6.2 2.8 1 0.9 1 1.7 0.1 5.6l-0.3 1.3 0.8-1.3c0.5-0.9 0.8-1.1 0.9-0.6 0 1.3-2.9 6-5.4 8.8l-2.2 2.5-0.1-1.8c0-1.3 0.3-1.8 1.1-2.1 1.8-0.5 1.3-1.4-0.5-1-1.3 0.2-1.7 0.1-1.7-0.5 0-1.3-3.1-4.6-5.7-6.2-2.9-1.6-8.4-3.3-14.7-4.3-2.7-0.5-5.5-1.2-6-1.5-1.2-0.6-1.3-1.6-0.3-1.6 0.3 0 1.3-0.5 2-1.1l1.4-1.2-2.3 0.4c-2.1 0.3-2.5 0.1-4.6-1.7-2.4-2.2-2.9-1.6-1.3 1.5 0.8 1.5 0.8 1.8 0 2.4-0.8 0.6-0.6 0.8 1.6 2.6 1.8 1.4 3.3 2 5.3 2.3 11.2 1.4 19.7 4.2 22.4 7.2 2.1 2.4 2.3 6.4 0.5 8.7-0.6 0.8-1 1.6-0.8 1.9 0.4 0.6-2.9 3.4-3.9 3.4-0.3 0-1-0.5-1.5-1.1-1.1-1.2-1-1.2 2.4-2.3 0.5-0.2-1.2-0.5-3.8-0.7-9.3-0.8-13.7-2.3-18.2-6.4-2.6-2.2-3.3-2.2-2 0.1 0.5 1.1 0.4 1.1-0.4 0.8-0.6-0.3-2.1-0.8-3.4-1.2-2.2-0.8-3.6-1.9-2.4-1.9 0.3 0 1.2-0.2 2.1-0.6 1.4-0.6 0.9-0.7-4.5-1-3.3-0.2-6.1-0.3-6.3-0.2-0.6 0.6 2 1.8 3.6 1.8 0.9 0 2.1 0.5 2.6 1.1 0.9 0.9 0.8 1-2.3 1.2-4 0.4-6.4 1.6-6.9 3.6q-0.8 3.2 1.6 0.3c2.7-3.1 5.2-2.9 21.7 1.6 11.6 3.2 15.4 5.7 15.4 10 0 4-3.4 7.1-9.9 9.1-4.4 1.4-6.7 1.4-7.9 0.1-1.3-1.5-1-3.6 0.6-3.8 0.9-0.1 1.4 0.2 1.9 1.3 0.6 1.4 0.6 1.4 1.1 0.3 0.3-0.8 0.9-1.2 1.9-1.2 0.8 0 1.9-0.2 2.4-0.5 0.7-0.5 0.7-0.6-0.1-0.6-0.5 0-3.9-0.8-7.4-1.9-3.6-1.1-7-2.2-7.6-2.3-0.8-0.3-0.9-0.2-0.3 1 0.4 0.7 1.3 2 2.1 2.8 1.9 2 1.1 2.6-3.7 2.6-2.7 0-3.4 0.2-2.9 0.7 0.3 0.3 2.4 0.6 4.6 0.6 2.5 0.1 4 0.4 4.1 0.8 0.5 1.3-1 5-2.9 6.9-5 5.2-13.3 6.7-20.8 3.9-0.8-0.3-0.6 0.1 0.8 1.5l1.8 1.9-4.2 8.5c-5 10.1-7.1 16.5-7.9 23.6-0.6 4.7-0.3 12.4 0.4 11.7 0.1-0.1 0.7-3.3 1.2-7.1 1.3-8.9 3.4-14.9 9.2-26.5 3.6-7.3 5-9.5 5.8-9.5 0.9 0 1 0.3 0.7 2.7-0.7 5.9-1 13.2-0.5 16.4l0.5 3.4-1.7-1c-1.7-1.1-5.8-2.4-5.8-1.9 0 0.1 1.7 1.8 3.7 3.7 4.2 3.9 7.3 8.8 9 14 0.9 2.9 1.2 5.5 1.5 13.1 0.2 8.7 0.3 9.5 1 8.1 0.9-1.8 2.1-7.9 2.6-13.7 0.3-2.4 0.8-5.5 1.2-6.9 0.9-2.8 1-6 0.3-7.1-0.4-0.6-0.9 0.3-1.7 2.9-0.6 2.1-1.1 4.2-1.2 4.7 0 0.5-0.6-1.4-1.3-4.1-0.7-2.7-2-6.6-3-8.5-2.4-4.7-2.9-9.8-2-19 0.4-3.7 0.9-6.9 1-7.1 0.6-0.6 1.6 0.4 2.4 2.3 0.4 1.1 0.8 3.9 0.8 6.9 0.1 9.7 0.4 10.5 5 16.6 5.9 8 8.1 14 10.4 27.3 1.1 6.6 1.1 7.9 0.6 13.4-0.6 6.4-2.6 13.6-5.3 18.8-2.9 5.7-12.2 14.4-22.6 21.3-0.9 0.6-0.8 0.7 0.9 0.3 7.4-1.2 13.6-4.6 19.1-10.3 4-4.2 5.5-6.4 8-12.5 0.5-1.2 1-2.1 1.3-1.9 11.5 5.8 20.5 7.8 30 6.5 8.7-1.2 14.7-4.2 23-11.6 4.9-4.3 8.3-6.2 13.8-8 5.7-1.9 11.3-2 13.9-0.4 3.9 2.2 5.7 7.1 3.4 9.2-2.3 2.1-17.5 4.7-27.3 4.7-1.9 0-3.5 0.2-3.5 0.5 0 1 5.5 1.9 13.7 2.2l8.5 0.3-3.2 2.3c-3.5 2.6-7.1 4.1-12.1 5.1-4.6 0.9-3.2 1.9 2.9 1.9 6.3 0 9.8-1.6 15.2-7 4.1-4.2 7.6-6.1 8.5-4.7 1.1 1.8 0.5 5.8-1.4 9.8-3.6 7.1-19.1 22-26.3 25.3-6.5 2.9-10.2 3.5-21.3 3-5.5-0.3-15.9-0.6-23.1-0.8l-13.2-0.3 4.5-2.3c2.7-1.4 6.5-2.7 9.6-3.4 2.8-0.6 6.7-1.5 8.7-2l3.5-0.8-5.9 0.3c-3.2 0.1-6.7 0.4-7.7 0.6-1.7 0.3-1.7 0.3 1-2 3.2-2.8 7.6-5.7 10.9-7.2l2.3-1.1h-1.8c-4.3 0-12.2 4.1-22 11.6-7 5.2-10.6 7.2-19.3 10.5-5.2 2.1-6.2 2.3-11 2.3-3.2 0-8.2-0.6-13.6-1.5-9.7-1.7-12.1-1.7-8.4 0 1.8 0.8 2.1 1.2 1.5 1.5-1.3 0.5-9.5 0.3-12-0.3z"/><path class="a" d="m306.9 215.6c-2-0.5-6.2-2.1-9.2-3.6l-5.5-2.7 0.3-1.9c1.1-6.3 1.4-9.5 1.4-18.6 0-11.5-0.9-16.9-4-23.3l-1.9-3.7 5.3-2.9c8.8-5 14.3-6.8 23.9-8.1 11.2-1.4 21.4 1.4 28.7 8 3.8 3.5 4.4 3.3 1.5-0.5-1.1-1.3-1.7-2.5-1.3-2.5 0.3 0 2.7 1.1 5.3 2.5 9.4 4.8 16.9 12.2 19 18.7 0.9 2.7 0.9 2.8-0.5 6.5-0.8 2-2.2 5.1-3.1 6.8-3.4 5.9-6.2 8.1-11.7 9.3-1.6 0.3-3.2 0.7-3.7 0.9-0.8 0.3-0.9 0.2-0.4-1.5 0.7-2.5 0.6-10-0.1-11.6-0.9-1.9-1.6-1.3-1.6 1.3 0 2.8-1.4 7.3-3.4 11.2-3.7 7-12.7 13.8-21.1 16-4.3 1.1-13.2 1-17.9-0.3z"/><path class="a" d="m317 101.1c-2.7-1.3-2.9-3.3-0.5-5.3 2.2-1.9 5.9-1.9 6.8 0.1 0.6 1.3 1.3 1.7 1.3 0.5 0-1.2-1.6-3.1-2.7-3.1-0.6 0-1.2-0.2-1.3-0.5-0.4-0.6 8.1-8.3 9.2-8.3 0.5 0 1.2 0.8 1.7 1.8 0.8 1.8 1.1 1.3 0.8-1.8l-0.1-1.4 1.3 1.3c1 1 1.3 1.8 1.2 3.7-0.1 2.8 0.1 3 1 1 0.6-1.8 1.2-1.3 0.7 0.8-0.1 0.9-1.2 2.4-2.3 3.4-1.1 1.1-1.8 1.6-1.6 1.2 0.6-1.1-0.5-0.8-1.6 0.5-2.1 2.3-8.5 6.6-10.2 6.8-1.2 0.2-2.5-0.1-3.7-0.7z"/><path class="b" d="m87.7 516.8c0-0.2 0.5-0.7 1.1-1.1 1.1-0.7 1.1-1.2 1-16.7l-0.2-16-2.3-0.5c-4.2-1-2.5-1.5 5.1-1.5 7.5 0 9.2 0.5 5.1 1.5l-2.4 0.5-0.2 16-0.1 16h7.3c4 0 7.8-0.2 8.4-0.5 0.7-0.2 1.2-1.2 1.6-3 0.8-3.7 2.3-4.1 1.8-0.6-0.3 1.5-0.4 3.5-0.4 4.5v1.8h-12.9c-7.1 0-12.9-0.1-12.9-0.4z"/><path class="b" d="m129.9 515.9c0-0.6 0.6-0.9 1.8-0.9 1 0 2.1-0.2 2.5-0.6 0.5-0.5 0.7-4.8 0.7-16.2 0-14.7-0.1-15.5-1.1-16.1-0.6-0.2-1.7-0.5-2.4-0.5-0.8 0-1.5-0.3-1.5-0.7 0-0.5 1.9-0.7 7.4-0.7 5.6 0 7.4 0.2 7.4 0.7 0 0.4-0.7 0.7-1.8 0.7-1 0-2.1 0.3-2.4 0.6-0.5 0.5-0.7 4.9-0.7 16.4 0 17.3-0.2 16.4 3.3 16.4q1.6 0 1.6 0.9c0 0.7-1.2 0.8-7.4 0.8-6.2 0-7.4-0.1-7.4-0.8z"/><path class="b" d="m244.3 515.8l-2.2-0.8 0.2-3.8c0.1-2.8 0.3-3.8 0.9-3.8 0.5 0 0.8 0.8 0.9 2.3 0.2 2.8 1.7 4 5.8 4.8 3.9 0.7 7.8-0.2 10-2.1 2.9-2.7 3.4-7.9 1-10.5-1.4-1.5-2.5-1.9-7.5-2.8-5.2-0.8-7.3-1.7-9-3.8-3.9-4.6-1.9-12.1 3.8-14.9 3-1.4 8.7-1.7 12.5-0.6 3.4 1 3.4 1.2 3.2 5-0.3 4-1.6 4.8-1.9 1.1-0.2-3.1-2.1-4.4-6.4-4.8-5.8-0.4-8.8 2.2-8.8 7.5 0 2.4 0.2 3 1.6 4.2 0.9 0.7 2.6 1.5 3.7 1.7 9.8 1.7 11.5 2.4 13.3 5.4 1.3 2 1.4 6.1 0.3 8.7-1 2.5-3.9 5.3-7.2 6.8-2.2 1-3.6 1.3-7.4 1.2-2.5 0-5.6-0.4-6.8-0.8z"/><path class="b" d="m496.4 515.8c-4.7-2.3-6.7-8.9-4.2-14 0.7-1.4 4.3-4.8 6-5.8 0.8-0.4 0.8-0.8 0-3.8-1.3-4.9-0.6-6.8 3.5-10.3 1.8-1.5 2.9-2 4.4-2 6.2 0 5.8 8.5-0.6 13.4-1.1 0.8-2.1 1.8-2.1 2.1 0 1.5 9.2 13.1 10.5 13.1 1.2 0 2.7-3.7 2.7-6.3 0-3.4-0.7-4.2-3.4-4.2-2 0-2.1-0.1-1.5-1.1 0.5-1 1.1-1.1 8.1-1.1h7.6l-0.3 1.4c-0.2 1.3-0.4 1.4-3.9 1.4-3.5 0-3.8 0-3.5 1.1 0.5 1.9-0.4 4.8-2.3 7.6l-1.9 2.8 2.7 1.4c3.3 1.7 7.1 2.3 8.8 1.4 1.9-1 1.3 0.2-1.1 2.1-2.1 1.6-2.5 1.8-5.3 1.6-2-0.2-3.7-0.8-5.7-2.1-2.5-1.5-2.9-1.6-3.7-0.9-3.2 2.9-11 4-14.8 2.2zm12.2-2.6c1.1-0.5 2-1.1 2-1.4 0-0.3-1.4-2.1-3.1-4-1.7-1.9-4.1-4.9-5.3-6.9-1.2-1.9-2.4-3.4-2.6-3.4-0.9 0-3.7 3.8-4.1 5.5-0.8 3.6 1 7.9 4.2 9.8 2.2 1.4 6.2 1.5 8.9 0.4zm-4-21.6c2-2.1 2.7-3.6 2.7-5.8 0-2.6-1.9-4-4.1-3.1-1.8 0.9-2.2 2.5-1.8 6.3 0.5 4.6 1 5 3.2 2.6z"/><path class="b" d="m711.6 516.3c-0.8-0.1-6.1-6.4-13.5-15.6l-12.3-15.3-0.2 13.3c0 7.3 0 13.9 0.2 14.5 0.1 0.8 0.8 1.3 2.2 1.5 3.7 0.7 1.9 1.4-3.6 1.4-3 0-5.5-0.2-5.5-0.5 0-0.6 1.4-1.1 2.8-1.1 1.4 0 1.6-1.9 1.6-17.6 0-14 0-14.2-1.2-15-0.7-0.5-1.8-0.9-2.5-0.9-0.7 0-1.2-0.2-1.2-0.5 0-0.3 1.8-0.6 4.5-0.6h4.6l2.1 2.9c4.5 5.9 21.6 27.2 22.2 27.5 0.6 0.5 0.9-26.2 0.3-27.8-0.2-0.5-1.2-1-2.2-1.2-3.7-0.7-1.9-1.4 3.6-1.4 5.4 0 7.2 0.7 3.6 1.4-1 0.2-2 0.7-2.2 1.2-0.2 0.5-0.3 8.4-0.3 17.5 0 18.3 0.2 17-3 16.3z"/><path class="b" d="m784.8 515.9l-1.9-0.7-0.2-3.9c-0.1-3.2 0-3.9 0.7-3.9 0.5 0 0.8 0.7 0.9 2.3 0.3 2.8 1.7 4 5.9 4.8 4.2 0.8 8.1-0.2 10.3-2.5 3.4-3.6 2.9-9.6-1-11.3-1-0.5-3.7-1.2-5.9-1.6-6.8-1.1-10-3.4-10.8-7.5-1-5.4 3-10.9 8.8-12.3 2.4-0.5 3.8-0.5 6.6 0 5.4 1 6.5 1.6 6.1 3.5-0.2 0.9-0.3 2.5-0.3 3.5 0 2.9-1.6 2.5-1.8-0.4-0.3-3.4-2.1-4.6-7.3-4.6-3.8 0-4.1 0.1-5.8 1.8-1.4 1.3-1.8 2.3-2 4.4-0.5 4.8 1.2 6.3 8.2 7.5 6.1 1.1 7.7 1.7 9.5 3.6 1.5 1.6 1.6 2 1.6 5.7 0 3.7-0.1 4.3-1.6 6.5-1.2 1.6-2.8 2.9-5.2 4.1-3.1 1.6-3.8 1.8-8.1 1.7-2.7 0-5.7-0.3-6.7-0.7z"/><path class="b" d="m829.2 515.9l-1.9-0.7-0.2-3.9c-0.1-3.2 0-3.9 0.7-3.9 0.5 0 0.9 0.7 1 2.3 0.2 2.8 1.7 4 5.8 4.8 6.2 1.1 11.6-1.7 12.4-6.6 0.5-2.7-0.5-5.7-2.2-6.8-0.7-0.5-3.7-1.4-6.6-2-2.9-0.5-6-1.4-6.9-2-7.5-4.3-4.5-15.7 4.7-17.8 3.3-0.7 8.5-0.1 11.6 1.3 1.3 0.6 1.4 0.9 1.1 2.6-0.1 1.1-0.3 2.6-0.3 3.5 0 2.5-1.5 1.9-1.8-0.8-0.2-3.4-2-4.6-7.3-4.6-3.8 0-4.1 0.1-5.8 1.8-1.3 1.3-1.8 2.3-2 4.4-0.4 4.8 1.2 6.3 8.2 7.5 6.2 1.1 7.7 1.7 9.6 3.6 1.5 1.6 1.6 2 1.6 5.7 0 3.7-0.2 4.3-1.7 6.5-1.1 1.6-2.8 2.9-5.1 4.1-3.2 1.6-3.9 1.8-8.2 1.7-2.6 0-5.7-0.3-6.7-0.7z"/><path class="b" d="m893.9 515.9l-1.9-0.7-0.2-3.9c-0.1-3.3 0-3.9 0.7-3.9 0.6 0 0.9 0.5 0.9 1.9 0 3.6 3.4 5.5 9.7 5.4 4.9-0.1 8.3-2.9 8.8-7.4 0.3-2.8-0.8-5.6-2.6-6.5-0.6-0.3-3.4-1.1-6.2-1.6-6.2-1.3-8.3-2.3-9.7-4.6-3.5-5.7-0.4-13 6.4-15 3.9-1.1 11.5-0.3 13.5 1.4 0.7 0.7-0.2 7.2-1.1 7.2-0.5 0-0.7-0.7-0.7-2.4 0-2.3-0.1-2.5-2.4-3.6-6.5-3.1-13 0.1-13 6.4 0 4.1 2 5.5 9.9 6.7 7.2 1.2 10 3.7 10 9 0 5-3.5 9.6-9.1 11.7-2.3 0.8-10.6 0.8-13-0.1z"/><path class="b" d="m982.9 515.8c-3.1-1.1-5.4-3.3-6.1-6-0.3-1.3-0.6-7.2-0.6-14.3 0-6.7-0.2-12.6-0.3-13-0.3-0.5-1.3-1.1-2.5-1.2-4.3-0.8-1.9-1.4 5.3-1.4 7.1 0 9.7 0.7 5.1 1.3-1.2 0.2-2.4 0.4-2.5 0.6-0.6 0.6-0.8 20-0.3 23.9 0.5 3.5 0.8 4.4 2.3 5.6 3.2 2.9 10.5 3.5 15.2 1.1 4-2 4.3-3.4 4.3-17.4 0-13.5-0.1-14-3.4-14-1 0-1.8-0.2-1.8-0.5 0-0.3 2.4-0.6 6.3-0.6 3.8 0 6.3 0.3 6.3 0.6 0 0.3-0.7 0.5-1.5 0.5-3.2 0-3.3 0.3-3.6 14-0.2 9.3-0.5 13.1-1.1 14.6-1.1 2.6-4 5.2-6.9 6.3-3.1 1-11 1-14.2-0.1z"/><path class="b" d="m1111.3 515.6c-3.7-1.5-7.1-4.8-8.9-8.7-2-4.5-2.3-11.7-0.6-16.2 3-8.2 12.4-13 22-11.4 4.9 0.9 8.4 2.6 11.3 5.7 3.1 3.4 4.1 7 3.9 13-0.4 8-3.9 13.5-10.7 16.8-2.8 1.4-3.9 1.6-8.7 1.7-4.5 0.2-6 0-8.3-0.9zm15.6-2.1c2.7-1.4 4.2-3.1 5.7-6.4 1.6-3.6 1.8-12.2 0.3-16.5-2.7-7.5-10.4-11.3-18.7-9-3.2 0.9-6.7 4.6-7.7 8.2-2.4 7.9 0.2 18.3 5.4 22.3 4 3.1 10.6 3.7 15 1.4z"/><path class="b" d="m156.8 515.6c0-0.5 1-0.8 3.5-1.2 0.7-0.1 1.3-0.8 1.6-2.1 0.6-2.1 0.3-29.9-0.3-30.4-0.1-0.3-1.3-0.5-2.5-0.7-1.3-0.2-2.3-0.5-2.3-0.8 0-0.2 5.8-0.5 12.8-0.5h12.8l-0.2 2.1c-0.6 6.2-1.3 7.3-2.1 3-0.5-2.5-0.6-2.6-3-3-3.6-0.7-9.3-0.2-9.9 0.7-0.3 0.4-0.5 3.7-0.5 7.3v6.5l5.4-0.2 5.3-0.2 0.5-2c0.9-3.7 1.4-2.3 1.4 3.9 0 3.7-0.2 6.1-0.6 6.1-0.2 0-0.5-0.8-0.5-1.9 0-3.1-1-3.6-6.6-3.6h-4.9v6.9c0 3.8 0.2 7.3 0.5 7.8 0.3 0.6 1.5 1.2 2.8 1.4 1.2 0.2 2.2 0.6 2.2 0.9 0 0.3-3 0.5-7.7 0.5-4.7 0-7.7-0.2-7.7-0.5z"/><path class="b" d="m200.7 515l1.4-1.2 0.1-14.8c0.1-8.2 0.1-15.4-0.1-16.1-0.3-0.9-0.9-1.4-2.2-1.6q-7.1-1.4 11.2-1.4h13.2l-0.3 1.3c-0.1 0.7-0.4 2.4-0.6 3.8-0.4 3.2-1.1 3.4-1.5 0.4-0.2-1.2-0.4-2.4-0.6-2.6-0.9-0.9-11.2-1.7-13.2-0.9-0.7 0.3-0.8 1.5-0.8 7.4v7.1h4.8c6.2 0 6.7-0.2 6.7-2.5 0-1.3 0.3-1.9 0.8-1.9 0.7 0 0.8 1 0.8 5.8 0 4.7-0.1 5.7-0.8 5.7-0.5 0-0.8-0.5-0.8-1.8 0-2.8-0.8-3.2-6.7-3l-5.1 0.2v7.4 7.4l6.6 0.1c8.5 0.2 9.2-0.1 10.1-3.6 0.4-1.6 0.9-2.8 1.3-2.8 0.7 0 0.7 1.2 0 6.4l-0.2 2.3h-12.8-12.7z"/><path class="b" d="m288.4 515.6c0-0.6 1.4-1.1 3-1.1 0.7 0 1.5-0.4 1.6-0.9 0.2-0.5 0.4-7.7 0.4-16.2v-15.3l-5.1 0.1-5.1 0.2-0.5 2.9c-0.3 1.6-0.7 2.8-1.1 2.7-0.3-0.1-0.6-2-0.7-4.1l-0.2-4h15.1 15.2l-0.2 4c-0.1 2.1-0.4 4-0.8 4.1-0.3 0.1-0.7-1.1-1.1-2.7l-0.4-2.9-5.1-0.2-5.1-0.1 0.1 16.1c0.2 15.5 0.2 16 1.3 16.2 2.6 0.4 3.5 0.7 3.5 1.2 0 0.3-2.9 0.5-7.4 0.5-4 0-7.4-0.2-7.4-0.5z"/><path class="b" d="m333.4 515.6c0-0.6 1.4-1.1 3-1.1 2 0 2.5-1.5 2.5-8.1v-5.9l-3.8-6.3c-5.7-9.3-7.7-11.7-9.9-12.1-3.1-0.5-2.5-1.4 1.5-2 3.4-0.7 3.7-0.6 4.9 0.5 1.3 1.3 4.1 5.7 7.9 12.9 1.3 2.5 2.5 4.5 2.7 4.5 0.1 0 2.7-4 5.7-9 5.3-8.9 5.4-9.1 7.3-9.1h2l-1.5 1.9c-2.3 2.7-9.5 13.5-11 16.5-1.3 2.3-1.4 3.3-1.4 8 0 6.4 0.5 8.2 2.4 8.2 1.7 0 3.1 0.5 3.1 1.1 0 0.3-3.5 0.5-7.7 0.5-4.2 0-7.7-0.2-7.7-0.5z"/><path class="b" d="m374.5 515.7c0-0.2 0.5-0.8 1.1-1.4 1.1-0.8 1.1-1.6 1.1-16.5 0-14.9 0-15.7-1-16.2-0.6-0.3-1.7-0.6-2.5-0.6-0.7 0-1.4-0.2-1.4-0.5 0-0.3 2.8-0.6 7.4-0.6 4.6 0 7.4 0.3 7.4 0.6 0 0.3-0.7 0.5-1.4 0.5-0.8 0-1.9 0.3-2.5 0.6-1 0.5-1 1.3-1 16.5v15.9l7.9-0.2c8.9-0.1 8.8-0.1 9.4-4.1q0.3-2.3 1.2-2.3c0.6 0 0.7 0.3 0.4 1.2-0.1 0.7-0.3 2.7-0.3 4.4v3.1h-12.9c-7 0-12.9-0.1-12.9-0.4z"/><path class="b" d="m417.9 515.6c0-0.2 0.4-0.6 1-0.8 0.8-0.3 1.1-1.1 1.4-3.7 0.4-4.2 0.4-26.6 0-28.3-0.3-0.9-0.9-1.3-2.5-1.5-5.2-0.9-1.1-1.4 11.2-1.4h13.3l-0.5 3.9c-0.3 2.1-0.7 3.8-1 3.8-0.2 0-0.6-1.1-0.7-2.4-0.3-1.5-0.7-2.6-1.3-2.8-0.5-0.2-3.5-0.5-6.8-0.6-4.8-0.3-5.9-0.2-6.1 0.4-0.1 0.4-0.4 3.8-0.6 7.5l-0.4 6.7h5.5c5.8 0 6.7-0.3 6.7-2.9 0-0.9 0.2-1.5 0.8-1.5 0.6 0 0.8 1 0.8 5.8 0 4.7-0.2 5.7-0.8 5.7-0.6 0-0.8-0.5-0.8-1.8 0-2.8-0.8-3.1-6.7-3.1h-5.4v7.7 7.6h6.8c8.4 0 9.4-0.3 9.9-3.1 0.4-2.4 1.2-3.9 1.7-3.3 0.2 0.2 0.2 2.2 0 4.5l-0.4 4.1h-12.6c-7.4 0-12.5-0.2-12.5-0.5z"/><path class="b" d="m561 515.6c0-0.5 1-0.8 3.6-1.2 1-0.2 1.1-0.7 1.2-16.1 0.2-17.5 0.2-17.3-3.3-17.3-0.8 0-1.5-0.2-1.5-0.5 0-0.3 4.6-0.6 12.7-0.6h12.6l-0.3 3.8c-0.3 2-0.5 3.8-0.6 3.9-0.5 0.5-0.9-0.5-1.2-2.7-0.2-1.3-0.6-2.3-1.2-2.5-1.5-0.6-8.1-1-10.1-0.6l-2 0.4v7.1 7.1h5.2c3.7 0 5.3-0.2 5.4-0.7 0.2-0.3 0.4-1.3 0.6-2.2 0.2-0.8 0.6-1.5 0.8-1.5 0.4 0 0.6 2.5 0.6 6 0 6.2-0.7 8-1.3 3.7-0.2-1.5-0.7-2.6-1.2-2.8-0.5-0.1-3-0.3-5.5-0.3h-4.7l0.2 7.4c0.2 8.1 0.2 8.1 3.3 8.8 0.9 0.1 1.5 0.5 1.5 0.8 0 0.3-2.9 0.5-7.4 0.5-4.5 0-7.4-0.2-7.4-0.5z"/><path class="b" d="m606 515.6c0-0.6 1.4-1.1 3-1.1 0.7 0 1.4-0.4 1.6-0.9 0.2-0.5 0.3-7.7 0.3-16.1 0-14.6 0-15.4-1-15.9-0.6-0.3-1.7-0.6-2.5-0.6-0.8 0-1.4-0.2-1.4-0.5 0-0.3 2.8-0.6 7.4-0.6 4.5 0 7.4 0.3 7.4 0.6 0 0.3-0.7 0.5-1.5 0.5-3.5 0-3.5-0.2-3.3 17.3 0.1 15.4 0.2 15.9 1.2 16.1 2.6 0.4 3.6 0.7 3.6 1.2 0 0.3-2.9 0.5-7.4 0.5-4.1 0-7.4-0.2-7.4-0.5z"/><path class="b" d="m643.8 515.6c0-0.5 1-0.8 3.6-1.2 1-0.2 1.1-0.7 1.3-16.2l0.1-16.1-5.1 0.1-5.1 0.2-0.5 2.9c-0.3 1.6-0.6 2.9-0.9 2.9-0.3 0-1.1-4.5-1.1-7v-1.3h15.1 15.1v4.2c0 3.2-0.2 4.1-0.8 4.1q-0.8 0-0.8-1.6c0-0.9-0.3-2.3-0.6-3-0.5-1.4-0.6-1.5-5.5-1.5h-4.9l0.1 16.1c0.2 15.5 0.2 16 1.3 16.2 2.5 0.4 3.5 0.7 3.5 1.2 0 0.3-2.9 0.5-7.4 0.5-4.5 0-7.4-0.2-7.4-0.5z"/><path class="b" d="m743.1 515.6c0-0.3 0.4-0.7 1-1.1 0.8-0.4 0.9-1.9 1.1-15.5 0.1-8.2 0-15.5-0.2-16.2-0.2-0.8-0.8-1.3-2.2-1.5q-7.1-1.4 11.2-1.4h13.2l-0.3 2.1c-0.6 4.7-0.8 5.6-1.3 5.6-0.3 0-0.6-0.8-0.6-1.7 0-2.6-0.6-3.3-3.3-3.8-2.9-0.6-9.4-0.7-10.6-0.2-0.7 0.3-0.9 1.5-0.9 7.4v7.2l5.7-0.2 5.6-0.2 0.2-1.8c0.2-1.1 0.6-2 1-2.2 0.5-0.1 0.7 1.2 0.7 5.7 0 4.4-0.2 5.8-0.7 5.6-0.4-0.1-0.8-1-0.8-1.8-0.4-2.7-1-3-6.5-3-6 0-5.7-0.3-5.7 7.7 0 8.1-0.5 7.6 6.8 7.6 9.2 0 9.4 0 10.1-3.6 1-4 2.1-3.9 1.8 0.2 0 1.7-0.2 3.7-0.4 4.4l-0.2 1.2h-12.4c-7.4 0-12.3-0.2-12.3-0.5z"/><path class="b" d="m936.7 515.6c0-0.5 1-0.8 3.6-1.2 0.9-0.2 1.1-0.7 1.4-5.1 0.5-6.8 0.5-17.2 0.1-22.7l-0.3-4.5-5 0.1-5 0.2-0.5 2.9c-0.4 3-1.4 3.9-1.4 1.3 0-0.8-0.2-2.7-0.4-4.1l-0.3-2.6h15.1 15.2v4.2c0 3.2-0.2 4.1-0.8 4.1q-0.9 0-0.9-1.6c0-0.9-0.2-2.3-0.5-3-0.5-1.4-0.7-1.5-5.5-1.5h-4.9l0.1 16.1c0.1 15.5 0.2 16 1.2 16.2 2.6 0.4 3.6 0.7 3.6 1.2 0 0.3-2.9 0.5-7.4 0.5-4.5 0-7.4-0.2-7.4-0.5z"/><path class="b" d="m1024.4 515.6c0-0.2 0.5-0.7 1-1.1 0.9-0.4 1-1.9 1.1-15.5 0.1-8.2 0-15.5-0.1-16.2-0.3-0.8-0.9-1.3-2.2-1.5-4.6-0.9-1.1-1.4 10-1.4 13.9 0 16.1 0.5 20 3.9 5.7 5 7.1 13.2 3.5 21-1.9 4.2-4.8 7.2-9 9.3l-3.7 1.8-10.2 0.1c-7 0.2-10.4 0-10.4-0.4zm22.3-3.1c2.9-1.6 4.8-3.7 6.4-7.1 1-2.3 1.2-3.6 1.2-8.2 0-4.6-0.2-5.9-1.3-8.1-2.6-5.3-8.1-7.8-16.4-7.5-2.4 0.2-4.6 0.5-4.9 0.7-0.5 0.6-0.9 23.6-0.4 28.3l0.4 3.5 6.3-0.3c5.3-0.1 6.9-0.4 8.7-1.3z"/><path class="b" d="m1072.2 515.6c0-0.6 1.3-1.1 3-1.1 0.7 0 1.6-0.5 1.9-1.1 0.7-1.2 0.5-30.9-0.1-31.5-0.2-0.3-1.4-0.5-2.6-0.7-4.7-0.7-2-1.3 5.4-1.3 7.4 0 10.1 0.6 5.5 1.3-1.2 0.2-2.4 0.4-2.6 0.7-0.7 0.6-0.8 29.5-0.2 31.1 0.5 1.1 1 1.5 1.9 1.5 1.7 0 3.1 0.5 3.1 1.1 0 0.3-3.4 0.5-7.7 0.5-4.2 0-7.6-0.2-7.6-0.5z"/><path class="b" d="m83.9 183.8v-73h52.9 52.9v17.3 17.3h-31.2-31.3v12.1 12h24.1 24.2v16.2 16.2h-24.2-24.1v27.4 27.4h-21.7-21.6z"/><path class="b" d="m394.3 183.8v-73h55.1 55.1v16.8 16.7h-33.2-33.1v10.7 10.7h26.8 26.9v16.2 16.1h-26.9-26.8v12.1 12.1h33.1 33.2v17.2 17.3h-55.1-55.1z"/><path class="b" d="m540.8 252.2c1.6-2.5 11.9-18.9 23-36.6 11-17.7 20.4-32.6 20.7-33.2 0.6-1-1.4-4.4-20.6-34.3-11.7-18.2-21.9-34.1-22.6-35.2l-1.2-2.1h26 26l11.2 19.3c6.1 10.6 11.5 19.3 11.7 19.3 0.4 0 5.8-8.7 12.1-19.3l11.5-19.2 20-0.1c15.7 0 19.8 0.2 19.6 0.8-0.1 0.3-9.6 15.5-21.1 33.7l-20.9 33.2 1.8 2.8c2.8 4.3 46.7 73.9 47.2 74.8 0.3 0.5-5 0.6-25.6 0.6h-26l-13-22.1c-7.2-12.3-13.4-22.6-13.7-23.1-0.6-0.8-2.8 2.6-14.4 22.1l-13.7 23.1h-20.4-20.4z"/></svg>